<svg id="Layer_1" data-name="Layer 1" xmlns="http://www.w3.org/2000/svg" viewBox="0 0 155.4 150.06"><defs><style>.cls-1{fill:#a500db;}.cls-2{fill:#1200c1;}.cls-3{fill:none;}.cls-4{fill:#bd09d1;}</style></defs><title>tb-logo</title><path class="cls-1" d="M66.94,39V15H54V165H67V39Z" transform="translate(-12.3 -14.97)"/><path class="cls-2" d="M69.94,39V15H12.3V38.82H45.72V165H70V39Z" transform="translate(-12.3 -14.97)"/><line class="cls-3" x1="54.64" y1="51.79" x2="54.64" y2="24.02"/><path class="cls-4" d="M159.52,100.52a36.46,36.46,0,0,0-21.78-12.86A34,34,0,0,0,157,76q7.34-8.94,7.33-23A41.09,41.09,0,0,0,162,39a31.66,31.66,0,0,0-9.95-14q-12.22-10-35-10H54V15H66.94V39H67V165h51.4q24,0,36.66-10.94t12.64-29.87A36.47,36.47,0,0,0,159.52,100.52ZM84,39h26.56q11.91,0,17.64,5.1t5.74,14.46q0,9.35-5.85,14.34t-17.1,5H84Zm46.75,96.39q-6.37,5.2-18.28,5.21H84V99.36h28.27q11.88,0,18.38,5.42t6.48,15.4Q137.1,130.19,130.72,135.38Z" transform="translate(-12.3 -14.97)"/></svg>